<svg xmlns="http://www.w3.org/2000/svg" width="16" height="16" viewBox="0 0 16 16">
    <g fill="none" fill-rule="evenodd">
        <path d="M0 0h16v16H0z"/>
        <path fill="#9E9E9E" fill-rule="nonzero" d="M14.846 1.332c-.181-.18-.472-.18-.635 0l-6.13 6.045L1.79 1.135c-.181-.18-.472-.18-.635 0a.43.43 0 0 0 0 .627l6.293 6.242-6.311 6.243a.43.43 0 0 0 0 .627c.09.09.2.126.326.126a.44.44 0 0 0 .327-.126l6.31-6.242 6.112 6.045c.09.09.2.126.327.126a.44.44 0 0 0 .326-.126.43.43 0 0 0 0-.628l-6.13-6.045 6.112-6.044c.163-.18.163-.467 0-.628z"/>
    </g>
</svg>
